<svg preserveAspectRatio="xMidYMid meet" overflow="visible" style="display: block;" viewBox="0 0 55 19" fill="none" xmlns="http://www.w3.org/2000/svg">
<g id="Hahaha">
<path id="Union" d="M51.3916 4H53V13H51.3916V15H8.3916V13H7V4H8.3916V2H51.3916V4Z" fill="var(--fill-0, #38BC0F)"/>
<rect id="Rectangle 1" x="5" y="4" width="2" height="9" fill="var(--fill-0, white)"/>
<rect id="Rectangle 4" x="53" y="4" width="2" height="9" fill="var(--fill-0, white)"/>
<rect id="rec 4" x="7" y="2" width="2" height="2" fill="var(--fill-0, white)"/>
<rect id="rec 3" x="7" y="13" width="2" height="2" fill="var(--fill-0, white)"/>
<rect id="rec 2" x="51" y="2" width="2" height="2" fill="var(--fill-0, white)"/>
<rect id="rec 1" x="51" y="13" width="2" height="2" fill="var(--fill-0, white)"/>
<rect id="Rectangle 3" x="9" width="42" height="2" fill="var(--fill-0, white)"/>
<rect id="Rectangle 6" x="9" y="15" width="42" height="2" fill="var(--fill-0, white)"/>
<rect id="BG" x="2" y="9" width="10" height="8" fill="var(--fill-0, #237809)"/>
<rect id="BG_2" x="4" y="9" width="8" height="6" fill="var(--fill-0, #38BC0F)"/>
<rect id="Rectangle 7" y="9" width="2" height="8" fill="var(--fill-0, white)"/>
<rect id="Rectangle 8" x="12" y="9" width="2" height="8" fill="var(--fill-0, white)"/>
<rect id="Rectangle 9" x="12" y="7" width="2" height="10" transform="rotate(90 12 7)" fill="var(--fill-0, white)"/>
<rect id="Rectangle 10" x="12" y="17" width="2" height="10" transform="rotate(90 12 17)" fill="var(--fill-0, white)"/>
</g>
</svg>
