<svg width="24" height="24" viewBox="0 0 22 22" fill="none" xmlns="http://www.w3.org/2000/svg">
<path d="M5 7C5 6.44772 5.44772 6 6 6H16C16.5523 6 17 6.44772 17 7C17 7.55228 16.5523 8 16 8H6C5.44772 8 5 7.55228 5 7Z" fill="#121212"/>
<path d="M6 10C5.44772 10 5 10.4477 5 11C5 11.5523 5.44772 12 6 12H13C13.5523 12 14 11.5523 14 11C14 10.4477 13.5523 10 13 10H6Z" fill="#121212"/>
<path fill-rule="evenodd" clip-rule="evenodd" d="M0 5C0 2.23858 2.23858 0 5 0H17C19.7614 0 22 2.23858 22 5V13C22 15.7614 19.7614 18 17 18H13.8281L10.4142 21.4139C9.15436 22.6738 7.00024 21.7816 7 20V18H5C2.23858 18 0 15.7614 0 13V5ZM9 16L9 19.9997L12.9997 16H17C18.6569 16 20 14.6569 20 13V5C20 3.34315 18.6569 2 17 2H5C3.34315 2 2 3.34315 2 5V13C2 14.6569 3.34315 16 5 16H9Z" fill="#121212"/>
</svg>
