<svg preserveAspectRatio="none" width="100%" height="100%" overflow="visible" style="display: block;" viewBox="0 0 20.0017 16.6683" fill="none" xmlns="http://www.w3.org/2000/svg">
<g id="icon">
<path d="M11.1798 0.488156C10.5289 -0.162718 9.47366 -0.162719 8.82279 0.488156L5.66074 3.6502C5.33531 3.97563 5.33531 4.50327 5.66074 4.82871C5.98618 5.15415 6.51382 5.15415 6.83926 4.82871L9.16667 2.5013V15.8349C9.16667 16.2951 9.53976 16.6682 10 16.6682C10.4602 16.6682 10.8333 16.2951 10.8333 15.8349V2.4987L13.1609 4.82627C13.4863 5.1517 14.014 5.1517 14.3394 4.82627C14.6648 4.50083 14.6648 3.97319 14.3394 3.64775L11.1798 0.488156Z" fill="var(--fill-0, #393939)"/>
<path d="M17.5536 6.86026C17.0655 6.3721 16.274 6.3721 15.7859 6.86026L13.5803 9.06585C13.2548 9.39129 13.2548 9.91892 13.5803 10.2444C13.9057 10.5698 14.4333 10.5698 14.7588 10.2444L15.8356 9.16756V15.835C15.8356 16.2952 16.2087 16.6683 16.6689 16.6683C17.1291 16.6683 17.5022 16.2952 17.5022 15.835V9.1659L18.5791 10.2427C18.9045 10.5682 19.4321 10.5682 19.7576 10.2427C20.083 9.9173 20.083 9.38966 19.7576 9.06422L17.5536 6.86026Z" fill="var(--fill-0, #393939)"/>
<path d="M2.44967 6.94652C2.93782 6.45837 3.72928 6.45836 4.21744 6.94652L6.4214 9.15048C6.74684 9.47592 6.74684 10.0036 6.4214 10.329C6.09596 10.6544 5.56833 10.6544 5.24289 10.329L4.16606 9.25216V15.835C4.16606 16.2952 3.79296 16.6683 3.33272 16.6683C2.87249 16.6683 2.49939 16.2952 2.49939 15.835V9.25382L1.42259 10.3306C1.09715 10.6561 0.569515 10.6561 0.244078 10.3306C-0.0813592 10.0052 -0.0813592 9.47755 0.244078 9.15211L2.44967 6.94652Z" fill="var(--fill-0, #393939)"/>
</g>
</svg>
