<svg preserveAspectRatio="none" width="100%" height="100%" overflow="visible" style="display: block;" viewBox="0 0 23.9989 24.0024" fill="none" xmlns="http://www.w3.org/2000/svg">
<path id="icon" fill-rule="evenodd" clip-rule="evenodd" d="M18.6122 9.23512C18.9433 8.67915 19.3426 8.16251 19.8037 7.6981C20.9235 6.57 20.6513 4.68348 19.2582 3.918L12.7632 0.349219C11.7193 -0.224356 10.4279 -0.0816982 9.53436 0.705886C8.27188 1.81869 7.33745 3.24314 6.81645 4.8252C6.58876 4.63943 6.33267 4.48178 6.05156 4.35942L2.60047 2.85729C1.95068 2.57446 1.19579 2.88587 0.934409 3.54458C0.461672 4.73594 0.513821 6.00678 0.981504 7.10004C0.706708 7.22753 0.477248 7.45462 0.352442 7.7565C-0.62786 10.1277 0.507334 12.8439 2.8834 13.8124L4.77604 14.5838C4.3872 15.3571 3.85186 16.0549 3.19316 16.6355C2.13023 17.5724 2.31886 19.2801 3.56065 19.9624L10.273 23.6507C11.3242 24.2283 12.6247 24.0846 13.5245 23.2915C14.8587 22.1154 15.8295 20.5934 16.3366 18.9043L17.593 19.1218C20.1074 19.5571 22.5024 17.8835 22.9582 15.3727C23.0509 14.8622 22.82 14.3683 22.4121 14.101C23.2182 13.4217 23.796 12.4629 23.982 11.3407C24.0933 10.6687 23.6447 10.0317 22.9745 9.91008L19.4572 9.27181C19.1712 9.21993 18.8876 9.20912 18.6122 9.23512ZM18.2951 5.67082L11.8001 2.10204C11.4951 1.93448 11.1179 1.97616 10.8568 2.20624C9.57485 3.33623 8.72234 4.87421 8.44339 6.5602L8.28454 7.52034L15.6121 11.7509L15.6352 11.617C15.9832 9.60107 16.943 7.74096 18.3843 6.28908C18.5674 6.10457 18.5229 5.79602 18.2951 5.67082ZM7.38451 12.9603L7.57828 11.7891L14.8779 16.0035L14.6281 17.4502C14.3379 19.1314 13.4819 20.663 12.202 21.7912C11.9347 22.0268 11.5484 22.0694 11.2362 21.8979L4.52378 18.2096C4.5142 18.2043 4.50956 18.2001 4.50956 18.2001L4.50855 18.199L4.50746 18.1976C4.50586 18.1951 4.50194 18.1874 4.50054 18.1748C4.49915 18.1622 4.50131 18.1539 4.50233 18.1511L4.50384 18.1483C4.50384 18.1483 4.50743 18.1431 4.51563 18.1358C6.03954 16.7926 7.05293 14.9644 7.38451 12.9603ZM16.7024 17.1916L17.8915 17.3974C19.2908 17.6397 20.6308 16.8343 21.1045 15.5452L18.2981 15.0521L17.1073 14.846L16.7024 17.1916ZM17.4056 13.1185L18.5989 13.3281L18.9653 13.3916C20.3543 13.632 21.6807 12.8211 22.1323 11.5358L19.1447 10.9937C18.4352 10.8649 17.7579 11.3187 17.5971 12.009L17.4056 13.1185ZM3.54394 12.1918L5.35553 12.9302C5.37628 12.832 5.39489 12.7332 5.41134 12.6338L5.76286 10.5091L1.81929 8.90069C1.51862 10.2466 2.22298 11.6534 3.54394 12.1918ZM6.21503 7.77613L6.21175 7.78771L6.21305 7.78808L6.0561 8.73674L4.16602 7.96287C2.84985 7.42398 2.13812 6.03137 2.41345 4.68447L5.35314 5.96401C5.9489 6.22332 6.3036 6.82272 6.26932 7.44802L6.21503 7.77613Z" fill="var(--fill-0, white)"/>
</svg>
