<svg preserveAspectRatio="none" width="100%" height="100%" overflow="visible" style="display: block;" viewBox="0 0 22 21.9952" fill="none" xmlns="http://www.w3.org/2000/svg">
<path id="icon" fill-rule="evenodd" clip-rule="evenodd" d="M5.29289 6.29294C4.90237 5.90241 4.90237 5.26924 5.29289 4.87871L9.58579 0.58579C10.3668 -0.195265 11.6332 -0.195262 12.4142 0.585791L16.7071 4.87871C17.0976 5.26924 17.0976 5.90241 16.7071 6.29294C16.3166 6.68346 15.6834 6.68346 15.2929 6.29294L12 3.00002V14.996C12 15.5483 11.5523 15.9961 11 15.9961C10.4477 15.9961 10 15.5483 10 14.996V3.00002L6.70711 6.29294C6.31658 6.68346 5.68342 6.68346 5.29289 6.29294ZM5 19.9952C3.34315 19.9952 2 18.652 2 16.9952L2 11.9951C2 11.4429 1.55228 10.9951 1 10.9951C0.447715 10.9951 0 11.4429 0 11.9951V16.9952C0 19.7566 2.23858 21.9952 5 21.9952H17C19.7614 21.9952 22 19.7566 22 16.9952V11.9951C22 11.4429 21.5523 10.9951 21 10.9951C20.4477 10.9951 20 11.4429 20 11.9951V16.9952C20 18.652 18.6569 19.9952 17 19.9952H5Z" fill="var(--fill-0, white)"/>
</svg>
