<svg preserveAspectRatio="none" width="100%" height="100%" overflow="visible" style="display: block;" viewBox="0 0 22 18" fill="none" xmlns="http://www.w3.org/2000/svg">
<g id="icon">
<path d="M4 12C4 11.4477 4.44772 11 5 11H10C10.5523 11 11 11.4477 11 12C11 12.5523 10.5523 13 10 13H5C4.44772 13 4 12.5523 4 12Z" fill="var(--fill-0, white)"/>
<path fill-rule="evenodd" clip-rule="evenodd" d="M0 5C0 2.23858 2.23858 0 5 0H17C19.7614 0 22 2.23858 22 5V13C22 15.7614 19.7614 18 17 18H5C2.23858 18 0 15.7614 0 13V5ZM5 2H17C18.6569 2 20 3.34315 20 5H2C2 3.34315 3.34315 2 5 2ZM2 8V13C2 14.6569 3.34315 16 5 16H17C18.6569 16 20 14.6569 20 13V8H2Z" fill="var(--fill-0, white)"/>
</g>
</svg>
