<svg preserveAspectRatio="none" width="100%" height="100%" overflow="visible" style="display: block;" viewBox="0 0 20.0001 20" fill="none" xmlns="http://www.w3.org/2000/svg">
<g id="icon">
<path fill-rule="evenodd" clip-rule="evenodd" d="M5.15633 6.875C7.05485 6.875 8.59391 5.33598 8.59391 3.4375C8.59391 1.53902 7.05485 0 5.15633 0C3.25781 0 1.71875 1.53902 1.71875 3.4375C1.71875 5.33598 3.25781 6.875 5.15633 6.875ZM5.15633 5.20833C6.13441 5.20833 6.92724 4.41547 6.92724 3.4375C6.92724 2.45953 6.13441 1.66667 5.15633 1.66667C4.17824 1.66667 3.38542 2.45953 3.38542 3.4375C3.38542 4.41547 4.17824 5.20833 5.15633 5.20833Z" fill="var(--fill-0, #393939)"/>
<path fill-rule="evenodd" clip-rule="evenodd" d="M18.2814 3.4375C18.2814 5.33598 16.7424 6.875 14.8438 6.875C12.9453 6.875 11.4062 5.33598 11.4062 3.4375C11.4062 1.53902 12.9453 0 14.8438 0C16.7424 0 18.2814 1.53902 18.2814 3.4375ZM16.6147 3.4375C16.6147 4.41547 15.8219 5.20833 14.8438 5.20833C13.8657 5.20833 13.0729 4.41547 13.0729 3.4375C13.0729 2.45953 13.8657 1.66667 14.8438 1.66667C15.8219 1.66667 16.6147 2.45953 16.6147 3.4375Z" fill="var(--fill-0, #393939)"/>
<path d="M13.9532 13.3333C14.3526 12.845 14.6633 12.2812 14.8607 11.6667H18.3025C18.3099 11.6667 18.314 11.6649 18.314 11.6649C18.3165 11.6639 18.3204 11.6616 18.3244 11.6576C18.327 11.655 18.3289 11.6524 18.3302 11.6502L18.3317 11.6473C18.3317 11.6473 18.3334 11.6431 18.3334 11.6358V11.3117C18.3334 10.3572 17.5596 9.58333 16.605 9.58333H15.078C15.0181 8.99214 14.8573 8.43075 14.6131 7.91667H16.605C18.48 7.91667 20.0001 9.43669 20.0001 11.3117V11.6358C20.0001 12.5733 19.2401 13.3333 18.3025 13.3333H13.9532Z" fill="var(--fill-0, #393939)"/>
<path d="M3.39506 7.91667H5.38695C5.14273 8.43075 4.98191 8.99214 4.92199 9.58333H3.39506C2.44049 9.58333 1.66667 10.3572 1.66667 11.3117V11.6358C1.66667 11.6431 1.66841 11.6473 1.66841 11.6473C1.66946 11.6498 1.6717 11.6536 1.67571 11.6576C1.67971 11.6616 1.68354 11.6639 1.68603 11.6649C1.68603 11.6649 1.69019 11.6667 1.69753 11.6667H5.1393C5.33668 12.2812 5.64737 12.845 6.04677 13.3333H1.69753C0.76001 13.3333 0 12.5733 0 11.6358V11.3117C0 9.43669 1.52002 7.91667 3.39506 7.91667Z" fill="var(--fill-0, #393939)"/>
<path fill-rule="evenodd" clip-rule="evenodd" d="M9.99998 13.5417C11.8985 13.5417 13.4376 12.0026 13.4376 10.1042C13.4376 8.20569 11.8985 6.66667 9.99998 6.66667C8.10146 6.66667 6.5624 8.20569 6.5624 10.1042C6.5624 12.0026 8.10146 13.5417 9.99998 13.5417ZM9.99998 11.875C10.9781 11.875 11.7709 11.0821 11.7709 10.1042C11.7709 9.1262 10.9781 8.33333 9.99998 8.33333C9.0219 8.33333 8.22907 9.1262 8.22907 10.1042C8.22907 11.0821 9.0219 11.875 9.99998 11.875Z" fill="var(--fill-0, #393939)"/>
<path fill-rule="evenodd" clip-rule="evenodd" d="M4.84375 17.9784C4.84375 16.1034 6.36377 14.5833 8.23881 14.5833H11.7612C13.6362 14.5833 15.1562 16.1034 15.1562 17.9784V18.3025C15.1562 19.24 14.3962 20 13.4587 20H6.54128C5.60376 20 4.84375 19.24 4.84375 18.3025V17.9784ZM8.23881 16.25H11.7612C12.7158 16.25 13.4896 17.0238 13.4896 17.9784V18.3025C13.4896 18.3098 13.4878 18.314 13.4878 18.314C13.4868 18.3165 13.4845 18.3203 13.4805 18.3243C13.4765 18.3283 13.4727 18.3305 13.4702 18.3316C13.4702 18.3316 13.4661 18.3333 13.4587 18.3333H6.54128C6.53394 18.3333 6.52978 18.3316 6.52978 18.3316C6.52729 18.3305 6.52346 18.3283 6.51946 18.3243C6.51545 18.3203 6.51321 18.3165 6.51216 18.314C6.51216 18.314 6.51042 18.3098 6.51042 18.3025V17.9784C6.51042 17.0238 7.28424 16.25 8.23881 16.25Z" fill="var(--fill-0, #393939)"/>
</g>
</svg>
