<svg preserveAspectRatio="none" width="100%" height="100%" overflow="visible" style="display: block;" viewBox="0 0 24 24" fill="none" xmlns="http://www.w3.org/2000/svg">
<g id=".iconMaster">
<path id="icon" fill-rule="evenodd" clip-rule="evenodd" d="M4.70585 3.76334C2.51993 4.34905 0.999942 6.32994 0.999942 8.59296L1 18C1 20.7614 3.23858 23 6 23H18C20.7614 23 23 20.7614 23 18V11C23 10.4477 22.5523 10 22 10H8.47622L21.9729 6.38357C22.5064 6.24063 22.823 5.69229 22.68 5.15882L22.4212 4.1929C21.7065 1.52557 18.9648 -0.0573469 16.2975 0.657362L4.70585 3.76334ZM7.54088 8.18007L10.2239 7.46117L10.7987 4.20133L8.11568 4.92023L7.54088 8.18007ZM5.98412 5.49138L5.22348 5.69519C3.91193 6.04662 2.99994 7.23515 2.99994 8.59296V9.39681L5.40932 8.75122L5.98412 5.49138ZM12.9302 3.63018L12.3554 6.89002L15.0384 6.17112L15.6132 2.91128L12.9302 3.63018ZM17.7185 2.48887L17.17 5.59997L20.4894 4.71053C20.1416 3.41251 18.9937 2.54249 17.7185 2.48887ZM21 12H3V18C3 19.6569 4.34315 21 6 21H18C19.6569 21 21 19.6569 21 18V12Z" fill="var(--fill-0, white)"/>
</g>
</svg>
