<svg preserveAspectRatio="none" width="100%" height="100%" overflow="visible" style="display: block;" viewBox="0 0 10 9.5" fill="none" xmlns="http://www.w3.org/2000/svg">
<path id="Icon color" d="M0.100716 3.92712C0.0162398 3.86562 -0.0198764 3.75726 0.010803 3.65737L0.0507643 3.53248C0.0799805 3.43378 0.167817 3.3639 0.270552 3.35763L3.46246 3.10286L4.68628 0.160503C4.72733 0.0574264 4.83037 -0.00722839 4.94103 0.000646885H5.07091C5.17524 -0.00156691 5.2695 0.0626152 5.30568 0.160503L6.53449 3.10286L9.7264 3.35763C9.82914 3.3639 9.91697 3.43378 9.94619 3.53248L9.98615 3.65737C10.0201 3.7541 9.99023 3.86177 9.91122 3.92712L7.50355 5.99527L8.24284 9.09748C8.26719 9.19679 8.22982 9.30103 8.14793 9.36225L8.00307 9.44217C7.91857 9.49929 7.80784 9.49929 7.72334 9.44217L5.00597 7.79365L2.27361 9.45716C2.18912 9.51428 2.07838 9.51428 1.99388 9.45716L1.88399 9.38223C1.8021 9.32102 1.76473 9.21677 1.78908 9.11747L2.50839 5.99527L0.100716 3.92712Z" fill="var(--fill-0, white)"/>
</svg>
