<svg width="24" height="24" viewBox="0 0 22 22" fill="none" xmlns="http://www.w3.org/2000/svg">
<path fill-rule="evenodd" clip-rule="evenodd" d="M0.737246 14.7322L3.99999 11.4695V7C3.99999 3.13401 7.134 0 11 0C14.866 0 18 3.13401 18 7V11.4695L21.2627 14.7322C22.8376 16.3071 21.7222 19 19.495 19H14.874C14.4299 20.7252 12.8638 22 11 22C9.13616 22 7.57006 20.7252 7.12602 19H2.50501C0.277748 19 -0.837667 16.3071 0.737246 14.7322ZM16 12.2979L19.8485 16.1464C20.1635 16.4614 19.9404 17 19.495 17H2.50501C2.05956 17 1.83647 16.4614 2.15146 16.1464L5.99999 12.2979V7C5.99999 4.23858 8.23857 2 11 2C13.7614 2 16 4.23858 16 7V12.2979ZM9.26756 19C9.61337 19.5978 10.2597 20 11 20C11.7403 20 12.3866 19.5978 12.7324 19H9.26756Z" fill="#121212"/>
</svg>
