<svg preserveAspectRatio="xMidYMid meet" overflow="visible" style="display: block;" viewBox="0 0 40 20" fill="none" xmlns="http://www.w3.org/2000/svg">
<path id="Vector" d="M8.1397 0.0202613C9.35708 -0.034802 10.5769 0.0224257 11.784 0.191228C12.699 0.325509 13.5586 0.563657 14.4883 0.666002C15.2448 0.749275 15.9519 0.855264 16.7224 0.852526C17.6582 0.849201 18.5673 0.754764 19.4853 0.56881C19.7227 0.523726 20.0111 0.431313 20.2207 0.398171C20.5948 0.339009 21.0912 0.243302 21.4632 0.21257C22.1024 0.159745 22.8462 0.175261 23.4874 0.213754C24.6374 0.282778 25.6791 0.603563 26.7908 0.87918C27.3434 1.01621 27.855 1.24346 28.4395 1.24803C29.6608 1.2576 31.0324 1.30545 32.2453 1.19783C33.6768 1.07083 35.397 0.522113 36.8254 0.876506C37.1518 0.913602 37.2906 1.08332 37.5357 1.22453C37.8552 1.40875 37.9404 1.49058 38.2011 1.74183C38.5468 2.07491 38.7716 2.40251 38.9993 2.82241C39.6774 4.07299 39.6505 5.5524 39.5252 6.93106C39.4688 7.62158 39.4618 8.42068 39.4862 9.11785C39.5154 9.95195 39.7585 10.8306 39.902 11.6539C40.0713 12.66 39.9997 13.6076 39.8504 14.6081C39.7613 15.2051 39.7002 15.6668 39.492 16.2491C39.3614 16.6141 39.3093 17.069 39.1574 17.4339C38.9545 17.866 38.7948 18.4148 38.5096 18.7971C37.8194 19.7222 37.0379 19.7102 36.0272 19.7047C34.7638 19.698 33.722 19.6867 32.5144 19.3589C32.3502 19.2971 32.2081 19.2847 32.0394 19.2588C30.1806 18.9732 28.4095 19.6556 26.5785 19.8251C25.7251 19.9041 24.8628 19.8248 24.0045 19.7891C22.9487 19.7359 21.8916 19.7094 20.8343 19.7098C19.126 19.7063 17.4178 19.7418 15.7111 19.8165C14.8435 19.8593 13.9106 19.9639 13.0699 19.9909C10.7895 20.05 8.52602 19.808 6.25398 19.6496C5.14483 19.5723 3.92683 19.5934 2.83595 19.3822C2.153 19.2265 1.56903 18.9364 1.0574 18.4583C0.335341 17.7834 0.062692 16.4877 0.0170384 15.5249C-0.0591836 13.9175 0.13102 12.2489 0.374767 10.6622C0.554481 9.49237 0.685829 8.41979 0.628718 7.23282C0.617503 5.55596 0.593491 3.62737 1.332 2.09535C1.40077 1.95269 1.57285 1.78252 1.6749 1.66373C1.90186 1.41926 2.28792 1.12868 2.59822 0.993041C4.19688 0.294223 6.43784 0.0684316 8.1397 0.0202613Z" fill="var(--fill-0, #F26AB9)"/>
</svg>
