<svg preserveAspectRatio="none" width="100%" height="100%" overflow="visible" style="display: block;" viewBox="0 0 138.327 81.25" fill="none" xmlns="http://www.w3.org/2000/svg">
<g id="Vector">
<path d="M121.974 4.26811C116.943 9.29147 116.85 13.9426 118.418 20.2055C119.182 23.7496 119.585 27.4283 119.585 31.2004C119.585 34.2986 119.314 37.3338 118.794 40.2827C118.486 42.024 118.092 43.7323 117.617 45.4061C113.863 58.6333 105.001 69.7139 93.2883 76.3913C92.0391 77.1032 91.6047 78.6917 92.3178 79.9384C92.7308 80.66 93.4368 81.1094 94.2018 81.2222C94.7582 81.3039 95.3452 81.2074 95.8711 80.9073C99.2097 79.0035 102.339 76.7742 105.214 74.262C109.283 77.4227 115.359 80.3299 120.905 78.6693C126.205 77.251 129.364 73.3306 131.828 68.6526C132.425 67.5191 132.068 66.1125 131.015 65.4488C126.568 62.6461 122.078 60.6951 116.76 62.1175C116.304 62.2393 115.863 62.38 115.438 62.5379C117.603 59.2442 119.436 55.7133 120.89 51.9931C125.742 52.0865 130.221 51.3593 133.852 47.7345C137.732 43.8603 138.505 38.8882 138.296 33.6064C138.246 32.3267 137.232 31.2867 135.987 31.2379C131.92 31.0775 128.085 31.372 124.755 33.3154C124.78 32.6136 124.794 31.9083 124.794 31.2004C124.794 27.6233 124.465 24.1229 123.835 20.7276C127.55 20.464 130.968 19.4128 133.852 16.534C137.732 12.6598 138.505 7.68777 138.296 2.40594C138.246 1.12623 137.232 0.0862141 135.987 0.0374633C130.732 -0.169727 125.867 0.381765 121.974 4.26811Z" fill="url(#paint0_linear_2616_108966)"/>
<path d="M16.3531 4.26811C21.3834 9.29147 21.477 13.9426 19.9084 20.2055C19.1445 23.7496 18.7416 27.4283 18.7416 31.2004C18.7416 34.2986 19.0132 37.3338 19.5331 40.2827C19.8413 42.024 20.235 43.7323 20.71 45.4061C24.4637 58.6333 33.326 69.7139 45.0386 76.3913C46.2878 77.1032 46.7222 78.6917 46.0091 79.9384C45.5961 80.66 44.8901 81.1094 44.1251 81.2222C43.5687 81.3039 42.9817 81.2074 42.4558 80.9073C39.1172 79.0035 35.9881 76.7742 33.1134 74.262C29.0444 77.4227 22.9683 80.3299 17.4223 78.6693C12.1224 77.251 8.96278 73.3306 6.499 68.6526C5.90187 67.5191 6.25892 66.1125 7.31178 65.4488C11.7592 62.6461 16.2494 60.6951 21.5665 62.1175C22.0233 62.2393 22.4638 62.38 22.889 62.5379C20.7243 59.2442 18.8912 55.7133 17.4365 51.9931C12.5852 52.0865 8.10626 51.3593 4.47466 47.7345C0.594862 43.8603 -0.178249 38.8882 0.0313047 33.6064C0.0811501 32.3267 1.09535 31.2867 2.33945 31.2379C6.40643 31.0775 10.2415 31.372 13.572 33.3154C13.5465 32.6136 13.5333 31.9083 13.5333 31.2004C13.5333 27.6233 13.8619 24.1229 14.4915 20.7276C10.7765 20.464 7.35857 19.4128 4.47466 16.534C0.594862 12.6598 -0.178249 7.68777 0.0313047 2.40594C0.0811501 1.12623 1.09535 0.0862141 2.33945 0.0374633C7.59458 -0.169727 12.4601 0.381765 16.3531 4.26811Z" fill="url(#paint1_linear_2616_108966)"/>
</g>
<defs>
<linearGradient id="paint0_linear_2616_108966" x1="22.7123" y1="-42.1723" x2="22.7123" y2="78.3391" gradientUnits="userSpaceOnUse">
<stop offset="0.255" stop-color="#F0D400"/>
<stop offset="1" stop-color="#E39601"/>
</linearGradient>
<linearGradient id="paint1_linear_2616_108966" x1="22.7123" y1="-42.1723" x2="22.7123" y2="78.3391" gradientUnits="userSpaceOnUse">
<stop offset="0.255" stop-color="#F0D400"/>
<stop offset="1" stop-color="#E39601"/>
</linearGradient>
</defs>
</svg>
